<mxfile host="Electron" modified="2023-10-19T18:15:28.225Z" agent="Mozilla/5.0 (Windows NT 10.0; Win64; x64) AppleWebKit/537.36 (KHTML, like Gecko) draw.io/22.0.2 Chrome/114.0.5735.289 Electron/25.8.4 Safari/537.36" etag="e4x5Wbog_UONc2PYGEo7" version="22.0.2" type="device">
  <diagram name="Page-1" id="xDV0ZZMxnwfIBPDk_s3Y">
    <mxGraphModel dx="772" dy="504" grid="1" gridSize="10" guides="1" tooltips="1" connect="1" arrows="1" fold="1" page="1" pageScale="1" pageWidth="850" pageHeight="1100" math="0" shadow="0">
      <root>
        <mxCell id="0" />
        <mxCell id="1" parent="0" />
        <mxCell id="7MIxbQxg6jOdyxkSIOHP-3" value="Give Certificate" style="rounded=1;whiteSpace=wrap;html=1;arcSize=40;" vertex="1" parent="1">
          <mxGeometry x="120" y="60" width="90" height="40" as="geometry" />
        </mxCell>
        <mxCell id="7MIxbQxg6jOdyxkSIOHP-4" value="" style="edgeStyle=orthogonalEdgeStyle;html=1;verticalAlign=bottom;endArrow=open;endSize=8;strokeColor=#272525;rounded=0;" edge="1" parent="1">
          <mxGeometry relative="1" as="geometry">
            <mxPoint x="165" y="140" as="targetPoint" />
            <mxPoint x="165" y="100" as="sourcePoint" />
          </mxGeometry>
        </mxCell>
        <mxCell id="7MIxbQxg6jOdyxkSIOHP-5" value="" style="ellipse;html=1;shape=endState;fillColor=#000000;strokeColor=#ff0000;" vertex="1" parent="1">
          <mxGeometry x="25" y="340" width="20" height="20" as="geometry" />
        </mxCell>
        <mxCell id="7MIxbQxg6jOdyxkSIOHP-7" value="" style="edgeStyle=orthogonalEdgeStyle;html=1;verticalAlign=bottom;endArrow=open;endSize=8;strokeColor=#ff0000;rounded=0;entryX=0;entryY=0.5;entryDx=0;entryDy=0;" edge="1" source="7MIxbQxg6jOdyxkSIOHP-6" parent="1" target="7MIxbQxg6jOdyxkSIOHP-3">
          <mxGeometry relative="1" as="geometry">
            <mxPoint x="100" y="120" as="targetPoint" />
            <mxPoint x="40" y="70" as="sourcePoint" />
            <Array as="points">
              <mxPoint x="70" y="80" />
              <mxPoint x="70" y="80" />
            </Array>
          </mxGeometry>
        </mxCell>
        <mxCell id="7MIxbQxg6jOdyxkSIOHP-6" value="" style="ellipse;html=1;shape=startState;fillColor=#000000;strokeColor=#ff0000;" vertex="1" parent="1">
          <mxGeometry x="20" y="65" width="30" height="30" as="geometry" />
        </mxCell>
        <mxCell id="7MIxbQxg6jOdyxkSIOHP-10" value="Give back Certificate" style="rounded=1;whiteSpace=wrap;html=1;arcSize=40;" vertex="1" parent="1">
          <mxGeometry x="20" y="240" width="90" height="40" as="geometry" />
        </mxCell>
        <mxCell id="7MIxbQxg6jOdyxkSIOHP-16" value="Condition" style="rhombus;whiteSpace=wrap;html=1;" vertex="1" parent="1">
          <mxGeometry x="125" y="140" width="80" height="40" as="geometry" />
        </mxCell>
        <mxCell id="7MIxbQxg6jOdyxkSIOHP-17" value="" style="edgeStyle=orthogonalEdgeStyle;html=1;align=left;verticalAlign=bottom;endArrow=open;endSize=8;strokeColor=#363030;rounded=0;entryX=0.5;entryY=0;entryDx=0;entryDy=0;" edge="1" source="7MIxbQxg6jOdyxkSIOHP-16" parent="1" target="7MIxbQxg6jOdyxkSIOHP-21">
          <mxGeometry x="-1" relative="1" as="geometry">
            <mxPoint x="160" y="240" as="targetPoint" />
          </mxGeometry>
        </mxCell>
        <mxCell id="7MIxbQxg6jOdyxkSIOHP-18" value="" style="edgeStyle=orthogonalEdgeStyle;html=1;align=left;verticalAlign=top;endArrow=open;endSize=8;strokeColor=#3c3939;rounded=0;entryX=0.5;entryY=0;entryDx=0;entryDy=0;" edge="1" source="7MIxbQxg6jOdyxkSIOHP-16" parent="1" target="7MIxbQxg6jOdyxkSIOHP-10">
          <mxGeometry x="1" y="73" relative="1" as="geometry">
            <mxPoint x="110" y="310" as="targetPoint" />
            <mxPoint x="-53" y="68" as="offset" />
          </mxGeometry>
        </mxCell>
        <mxCell id="7MIxbQxg6jOdyxkSIOHP-21" value="Check Documents" style="rounded=1;whiteSpace=wrap;html=1;arcSize=40;fontColor=#000000;fillColor=#fdfdf6;strokeColor=#302c2c;" vertex="1" parent="1">
          <mxGeometry x="125" y="240" width="80" height="40" as="geometry" />
        </mxCell>
        <mxCell id="7MIxbQxg6jOdyxkSIOHP-22" value="" style="edgeStyle=orthogonalEdgeStyle;html=1;verticalAlign=bottom;endArrow=open;endSize=8;strokeColor=#302c2c;rounded=0;" edge="1" source="7MIxbQxg6jOdyxkSIOHP-21" parent="1">
          <mxGeometry relative="1" as="geometry">
            <mxPoint x="165" y="340" as="targetPoint" />
          </mxGeometry>
        </mxCell>
        <mxCell id="7MIxbQxg6jOdyxkSIOHP-28" value="" style="rhombus;whiteSpace=wrap;html=1;" vertex="1" parent="1">
          <mxGeometry x="125" y="340" width="80" height="40" as="geometry" />
        </mxCell>
        <mxCell id="7MIxbQxg6jOdyxkSIOHP-29" value="" style="edgeStyle=orthogonalEdgeStyle;html=1;align=left;verticalAlign=bottom;endArrow=open;endSize=8;strokeColor=#181616;rounded=0;" edge="1" source="7MIxbQxg6jOdyxkSIOHP-28" parent="1">
          <mxGeometry x="-1" relative="1" as="geometry">
            <mxPoint x="165" y="410" as="targetPoint" />
          </mxGeometry>
        </mxCell>
        <mxCell id="7MIxbQxg6jOdyxkSIOHP-30" value="" style="edgeStyle=orthogonalEdgeStyle;html=1;align=left;verticalAlign=top;endArrow=open;endSize=8;strokeColor=#1d1b1b;rounded=0;entryX=0.6;entryY=-0.117;entryDx=0;entryDy=0;entryPerimeter=0;" edge="1" source="7MIxbQxg6jOdyxkSIOHP-28" parent="1" target="7MIxbQxg6jOdyxkSIOHP-33">
          <mxGeometry x="-1" relative="1" as="geometry">
            <mxPoint x="80" y="310" as="targetPoint" />
          </mxGeometry>
        </mxCell>
        <mxCell id="7MIxbQxg6jOdyxkSIOHP-31" value="Give election Paper" style="rounded=1;whiteSpace=wrap;html=1;arcSize=40;" vertex="1" parent="1">
          <mxGeometry x="120" y="410" width="90" height="40" as="geometry" />
        </mxCell>
        <mxCell id="7MIxbQxg6jOdyxkSIOHP-33" value="Give back Documents" style="rounded=1;whiteSpace=wrap;html=1;arcSize=40;" vertex="1" parent="1">
          <mxGeometry x="20" y="460" width="90" height="40" as="geometry" />
        </mxCell>
        <mxCell id="7MIxbQxg6jOdyxkSIOHP-36" value="" style="endArrow=open;endFill=1;endSize=12;html=1;rounded=0;entryX=0.55;entryY=0.7;entryDx=0;entryDy=0;entryPerimeter=0;strokeColor=#d04e4e;" edge="1" parent="1" target="7MIxbQxg6jOdyxkSIOHP-5">
          <mxGeometry width="160" relative="1" as="geometry">
            <mxPoint x="80" y="280" as="sourcePoint" />
            <mxPoint x="240" y="280" as="targetPoint" />
          </mxGeometry>
        </mxCell>
        <mxCell id="7MIxbQxg6jOdyxkSIOHP-37" value="End&lt;br&gt;" style="text;html=1;strokeColor=none;fillColor=none;align=center;verticalAlign=middle;whiteSpace=wrap;rounded=0;" vertex="1" parent="1">
          <mxGeometry x="5" y="360" width="60" height="20" as="geometry" />
        </mxCell>
        <mxCell id="7MIxbQxg6jOdyxkSIOHP-38" value="" style="endArrow=open;endFill=1;endSize=12;html=1;rounded=0;entryX=0.461;entryY=-0.3;entryDx=0;entryDy=0;entryPerimeter=0;" edge="1" parent="1" target="7MIxbQxg6jOdyxkSIOHP-37">
          <mxGeometry width="160" relative="1" as="geometry">
            <mxPoint x="60" y="460" as="sourcePoint" />
            <mxPoint x="220" y="460" as="targetPoint" />
          </mxGeometry>
        </mxCell>
        <mxCell id="7MIxbQxg6jOdyxkSIOHP-40" value="" style="html=1;points=[[0,0,0,0,5],[0,1,0,0,-5],[1,0,0,0,5],[1,1,0,0,-5]];perimeter=orthogonalPerimeter;outlineConnect=0;targetShapes=umlLifeline;portConstraint=eastwest;newEdgeStyle={&quot;curved&quot;:0,&quot;rounded&quot;:0};direction=west;fillColor=#252323;strokeColor=#b72a2a;" vertex="1" parent="1">
          <mxGeometry x="220" y="500" width="10" height="90" as="geometry" />
        </mxCell>
        <mxCell id="7MIxbQxg6jOdyxkSIOHP-44" value="sign Registry&amp;nbsp;" style="shape=hexagon;perimeter=hexagonPerimeter2;whiteSpace=wrap;html=1;fixedSize=1;" vertex="1" parent="1">
          <mxGeometry x="250" y="120" width="120" height="40" as="geometry" />
        </mxCell>
        <mxCell id="7MIxbQxg6jOdyxkSIOHP-46" value="Allocat the free cabin" style="shape=hexagon;perimeter=hexagonPerimeter2;whiteSpace=wrap;html=1;fixedSize=1;" vertex="1" parent="1">
          <mxGeometry x="470" y="120" width="120" height="40" as="geometry" />
        </mxCell>
        <mxCell id="7MIxbQxg6jOdyxkSIOHP-47" value="Give Pencil" style="shape=hexagon;perimeter=hexagonPerimeter2;whiteSpace=wrap;html=1;fixedSize=1;" vertex="1" parent="1">
          <mxGeometry x="490" y="200" width="120" height="40" as="geometry" />
        </mxCell>
        <mxCell id="7MIxbQxg6jOdyxkSIOHP-48" value="print on card" style="shape=hexagon;perimeter=hexagonPerimeter2;whiteSpace=wrap;html=1;fixedSize=1;" vertex="1" parent="1">
          <mxGeometry x="270" y="200" width="120" height="40" as="geometry" />
        </mxCell>
        <mxCell id="7MIxbQxg6jOdyxkSIOHP-56" value="" style="edgeStyle=orthogonalEdgeStyle;rounded=0;orthogonalLoop=1;jettySize=auto;html=1;" edge="1" parent="1" source="7MIxbQxg6jOdyxkSIOHP-49" target="7MIxbQxg6jOdyxkSIOHP-50">
          <mxGeometry relative="1" as="geometry">
            <Array as="points">
              <mxPoint x="430" y="390" />
              <mxPoint x="430" y="390" />
            </Array>
          </mxGeometry>
        </mxCell>
        <mxCell id="7MIxbQxg6jOdyxkSIOHP-49" value="Vote" style="shape=hexagon;perimeter=hexagonPerimeter2;whiteSpace=wrap;html=1;fixedSize=1;" vertex="1" parent="1">
          <mxGeometry x="380" y="280" width="120" height="40" as="geometry" />
        </mxCell>
        <mxCell id="7MIxbQxg6jOdyxkSIOHP-50" value="Insert election paper" style="shape=hexagon;perimeter=hexagonPerimeter2;whiteSpace=wrap;html=1;fixedSize=1;" vertex="1" parent="1">
          <mxGeometry x="390" y="400" width="120" height="40" as="geometry" />
        </mxCell>
        <mxCell id="7MIxbQxg6jOdyxkSIOHP-51" value="Give back pencil" style="shape=hexagon;perimeter=hexagonPerimeter2;whiteSpace=wrap;html=1;fixedSize=1;" vertex="1" parent="1">
          <mxGeometry x="380" y="480" width="120" height="40" as="geometry" />
        </mxCell>
        <mxCell id="7MIxbQxg6jOdyxkSIOHP-52" value="" style="html=1;points=[[0,0,0,0,5],[0,1,0,0,-5],[1,0,0,0,5],[1,1,0,0,-5]];perimeter=orthogonalPerimeter;outlineConnect=0;targetShapes=umlLifeline;portConstraint=eastwest;newEdgeStyle={&quot;curved&quot;:0,&quot;rounded&quot;:0};direction=south;fillColor=#252323;strokeColor=#b72a2a;" vertex="1" parent="1">
          <mxGeometry x="330" y="70" width="140" height="10" as="geometry" />
        </mxCell>
        <mxCell id="7MIxbQxg6jOdyxkSIOHP-54" value="" style="endArrow=open;endFill=1;endSize=12;html=1;rounded=0;exitX=1;exitY=0.25;exitDx=0;exitDy=0;" edge="1" parent="1" target="7MIxbQxg6jOdyxkSIOHP-52">
          <mxGeometry width="160" relative="1" as="geometry">
            <mxPoint x="220" y="420" as="sourcePoint" />
            <mxPoint x="410" y="50" as="targetPoint" />
            <Array as="points">
              <mxPoint x="250" y="420" />
              <mxPoint x="250" y="330" />
              <mxPoint x="250" y="210" />
              <mxPoint x="250" y="100" />
              <mxPoint x="250" y="40" />
              <mxPoint x="410" y="40" />
            </Array>
          </mxGeometry>
        </mxCell>
        <mxCell id="7MIxbQxg6jOdyxkSIOHP-63" value="" style="endArrow=open;endFill=1;endSize=12;html=1;rounded=0;exitX=0;exitY=0.25;exitDx=0;exitDy=0;" edge="1" parent="1" source="7MIxbQxg6jOdyxkSIOHP-51" target="7MIxbQxg6jOdyxkSIOHP-40">
          <mxGeometry width="160" relative="1" as="geometry">
            <mxPoint x="210" y="370" as="sourcePoint" />
            <mxPoint x="370" y="370" as="targetPoint" />
          </mxGeometry>
        </mxCell>
        <mxCell id="7MIxbQxg6jOdyxkSIOHP-67" value="" style="endArrow=open;endFill=1;endSize=12;html=1;rounded=0;entryX=0.375;entryY=0;entryDx=0;entryDy=0;" edge="1" parent="1" source="7MIxbQxg6jOdyxkSIOHP-52" target="7MIxbQxg6jOdyxkSIOHP-46">
          <mxGeometry width="160" relative="1" as="geometry">
            <mxPoint x="360" y="300" as="sourcePoint" />
            <mxPoint x="520" y="300" as="targetPoint" />
          </mxGeometry>
        </mxCell>
        <mxCell id="7MIxbQxg6jOdyxkSIOHP-69" value="" style="endArrow=open;endFill=1;endSize=12;html=1;rounded=0;entryX=0.625;entryY=0;entryDx=0;entryDy=0;" edge="1" parent="1" source="7MIxbQxg6jOdyxkSIOHP-52" target="7MIxbQxg6jOdyxkSIOHP-44">
          <mxGeometry width="160" relative="1" as="geometry">
            <mxPoint x="320" y="70" as="sourcePoint" />
            <mxPoint x="499.76744186046517" y="270" as="targetPoint" />
          </mxGeometry>
        </mxCell>
        <mxCell id="7MIxbQxg6jOdyxkSIOHP-71" value="" style="endArrow=open;endFill=1;endSize=12;html=1;rounded=0;exitX=0.5;exitY=1;exitDx=0;exitDy=0;entryX=0.5;entryY=0;entryDx=0;entryDy=0;" edge="1" parent="1" source="7MIxbQxg6jOdyxkSIOHP-44" target="7MIxbQxg6jOdyxkSIOHP-48">
          <mxGeometry width="160" relative="1" as="geometry">
            <mxPoint x="360" y="300" as="sourcePoint" />
            <mxPoint x="520" y="300" as="targetPoint" />
          </mxGeometry>
        </mxCell>
        <mxCell id="7MIxbQxg6jOdyxkSIOHP-73" value="" style="endArrow=open;endFill=1;endSize=12;html=1;rounded=0;exitX=0.5;exitY=1;exitDx=0;exitDy=0;" edge="1" parent="1" source="7MIxbQxg6jOdyxkSIOHP-46" target="7MIxbQxg6jOdyxkSIOHP-47">
          <mxGeometry width="160" relative="1" as="geometry">
            <mxPoint x="360" y="300" as="sourcePoint" />
            <mxPoint x="520" y="300" as="targetPoint" />
          </mxGeometry>
        </mxCell>
        <mxCell id="7MIxbQxg6jOdyxkSIOHP-75" value="" style="endArrow=open;endFill=1;endSize=12;html=1;rounded=0;exitX=0.375;exitY=1;exitDx=0;exitDy=0;entryX=0.625;entryY=0;entryDx=0;entryDy=0;" edge="1" parent="1" source="7MIxbQxg6jOdyxkSIOHP-47" target="7MIxbQxg6jOdyxkSIOHP-49">
          <mxGeometry width="160" relative="1" as="geometry">
            <mxPoint x="360" y="300" as="sourcePoint" />
            <mxPoint x="520" y="300" as="targetPoint" />
          </mxGeometry>
        </mxCell>
        <mxCell id="7MIxbQxg6jOdyxkSIOHP-76" value="" style="endArrow=open;endFill=1;endSize=12;html=1;rounded=0;exitX=0.444;exitY=1.175;exitDx=0;exitDy=0;exitPerimeter=0;" edge="1" parent="1" source="7MIxbQxg6jOdyxkSIOHP-50" target="7MIxbQxg6jOdyxkSIOHP-51">
          <mxGeometry width="160" relative="1" as="geometry">
            <mxPoint x="360" y="300" as="sourcePoint" />
            <mxPoint x="520" y="300" as="targetPoint" />
          </mxGeometry>
        </mxCell>
        <mxCell id="7MIxbQxg6jOdyxkSIOHP-77" value="" style="endArrow=open;endFill=1;endSize=12;html=1;rounded=0;exitX=0.375;exitY=1;exitDx=0;exitDy=0;entryX=1;entryY=1;entryDx=0;entryDy=0;" edge="1" parent="1" source="7MIxbQxg6jOdyxkSIOHP-48" target="7MIxbQxg6jOdyxkSIOHP-33">
          <mxGeometry width="160" relative="1" as="geometry">
            <mxPoint x="360" y="360" as="sourcePoint" />
            <mxPoint x="520" y="360" as="targetPoint" />
            <Array as="points">
              <mxPoint x="320" y="400" />
              <mxPoint x="320" y="560" />
              <mxPoint x="190" y="560" />
              <mxPoint x="110" y="560" />
            </Array>
          </mxGeometry>
        </mxCell>
        <mxCell id="7MIxbQxg6jOdyxkSIOHP-78" value="new elector" style="text;html=1;strokeColor=none;fillColor=none;align=center;verticalAlign=middle;whiteSpace=wrap;rounded=0;" vertex="1" parent="1">
          <mxGeometry x="5" y="100" width="60" height="30" as="geometry" />
        </mxCell>
        <mxCell id="7MIxbQxg6jOdyxkSIOHP-79" value="right number&lt;br&gt;" style="text;html=1;strokeColor=none;fillColor=none;align=center;verticalAlign=middle;whiteSpace=wrap;rounded=0;" vertex="1" parent="1">
          <mxGeometry x="170" y="200" width="60" height="30" as="geometry" />
        </mxCell>
        <mxCell id="7MIxbQxg6jOdyxkSIOHP-84" value="Voting Usecase Diagram" style="text;html=1;strokeColor=none;fillColor=none;align=center;verticalAlign=middle;whiteSpace=wrap;rounded=0;" vertex="1" parent="1">
          <mxGeometry x="90" y="10" width="540" height="10" as="geometry" />
        </mxCell>
        <mxCell id="7MIxbQxg6jOdyxkSIOHP-85" value="Invalid document" style="text;html=1;strokeColor=none;fillColor=none;align=center;verticalAlign=middle;whiteSpace=wrap;rounded=0;" vertex="1" parent="1">
          <mxGeometry x="80" y="320" width="60" height="30" as="geometry" />
        </mxCell>
      </root>
    </mxGraphModel>
  </diagram>
</mxfile>
